<svg xmlns="http://www.w3.org/2000/svg" width="129" height="46" viewBox="0 0 129 46" fill="none">
    <path d="M43.7779 24.5769L48.9363 26.0922C48.3175 28.1748 47.1017 29.8917 45.2889 31.2428C43.4762 32.594 41.2223 33.2679 38.5274 33.2647C35.242 33.2647 32.455 32.1695 30.1664 29.9791C27.8778 27.7887 26.7299 24.8548 26.7227 21.1775C26.7227 17.6855 27.8383 14.8295 30.0695 12.6095C32.3007 10.3895 34.9338 9.27954 37.9688 9.27954C41.5014 9.27954 44.2666 10.3208 46.2644 12.4035C48.2622 14.4861 49.2614 17.3497 49.2622 20.9943C49.2622 21.2338 49.2538 21.5153 49.2392 21.8207C49.2247 22.1262 49.215 22.3717 49.215 22.555L49.1689 22.8772H32.8104C32.8284 23.5779 32.9949 24.267 33.2992 24.9C33.6036 25.5331 34.0389 26.0959 34.5772 26.5521C35.692 27.5336 37.0249 28.0235 38.5759 28.0219C41.2078 28.0219 42.9418 26.8736 43.7779 24.5769ZM32.951 18.6968H43.1745C43.1409 17.5072 42.652 16.3745 41.8064 15.5274C40.9541 14.6697 39.7073 14.2409 38.0658 14.2409C36.5786 14.2409 35.3704 14.7001 34.4414 15.6184C33.5124 16.5368 33.0156 17.5629 32.951 18.6968Z" fill="#0A1C33"/>
    <path d="M61.7624 3.21613V9.96826H66.367V15.3896H61.7624V24.8524C61.7624 25.8027 61.9793 26.4767 62.4131 26.8743C62.8469 27.272 63.5287 27.4716 64.4585 27.4732C65.2946 27.4732 65.9296 27.4122 66.3634 27.29V32.3412C65.4643 32.7093 64.3026 32.8934 62.8784 32.8934C60.648 32.8934 58.8817 32.2729 57.5795 31.032C56.2773 29.791 55.627 28.0837 55.6286 25.9101V15.3896H51.4917V9.96826H52.6538C53.8001 9.96826 54.6753 9.63925 55.2796 8.98125C55.8839 8.32324 56.186 7.45802 56.186 6.38557V3.21613H61.7624Z" fill="#0A1C33"/>
    <path d="M79.0964 3.21613V9.96826H83.701V15.3896H79.0964V24.8524C79.0964 25.8027 79.3133 26.4767 79.7471 26.8743C80.1809 27.272 80.8623 27.4716 81.7913 27.4732C82.6286 27.4732 83.2624 27.4122 83.6962 27.29V32.3412C82.7979 32.7093 81.6362 32.8934 80.2112 32.8934C77.98 32.8934 76.2141 32.2729 74.9135 31.032C73.6129 29.791 72.9622 28.0833 72.9614 25.9089V15.3896H68.8281V9.96826H69.9902C71.1349 9.96826 72.0102 9.63925 72.616 8.98125C73.2219 8.32324 73.5236 7.45802 73.5212 6.38557V3.21613H79.0964Z" fill="#0A1C33"/>
    <path d="M104.051 24.5769L109.21 26.0922C108.589 28.1748 107.373 29.8917 105.561 31.2428C103.749 32.594 101.495 33.2679 98.7997 33.2647C95.5158 33.2647 92.7288 32.1695 90.4387 29.9791C88.1485 27.7887 87.0009 24.8548 86.9961 21.1775C86.9961 17.6855 88.1113 14.8295 90.3417 12.6095C92.5721 10.3895 95.2056 9.27954 98.2423 9.27954C101.774 9.27954 104.539 10.3208 106.538 12.4035C108.536 14.4861 109.536 17.3497 109.536 20.9943C109.536 21.2394 109.528 21.5149 109.511 21.8207C109.495 22.1266 109.488 22.3713 109.488 22.555L109.442 22.8772H93.0839C93.1019 23.5777 93.2683 24.2667 93.5724 24.8997C93.8765 25.5327 94.3116 26.0956 94.8494 26.5521C95.9658 27.5336 97.2987 28.0235 98.8481 28.0219C101.479 28.0219 103.214 26.8736 104.051 24.5769ZM93.2232 18.6968H103.447C103.413 17.5067 102.923 16.3737 102.076 15.5274C101.225 14.6697 99.9779 14.2409 98.3356 14.2409C96.8475 14.2409 95.639 14.7001 94.71 15.6184C93.781 16.5368 93.2854 17.5629 93.2232 18.6968Z" fill="#0A1C33"/>
    <path d="M128.356 9.87607V16.0329C127.744 15.9111 127.122 15.8493 126.497 15.8484C124.731 15.8484 123.305 16.3463 122.221 17.3421C121.137 18.3379 120.595 19.9685 120.595 22.234V32.57H114.415V9.9683H120.41V13.3222C121.526 10.9649 123.695 9.78583 126.917 9.78503C127.257 9.78503 127.737 9.81538 128.356 9.87607Z" fill="#0A1C33"/>
    <path d="M5.99595 0H0.00146484V33.26H5.99595V0Z" fill="#0A1C33"/>
    <path d="M8.59609 24.8716L8.5864 24.838L8.5658 24.8009L8.51491 24.7386L8.49915 24.7793C8.49307 24.7989 8.48495 24.8178 8.47492 24.8356C8.46501 24.844 8.45448 24.8516 8.44341 24.8584L8.48219 24.886C8.48946 24.886 8.49673 24.9159 8.50885 24.9207C8.52097 24.9255 8.50885 24.9578 8.50885 24.9662C8.50885 24.9746 8.53672 25.0045 8.53672 25.0045C8.53576 25.0271 8.53292 25.0495 8.52824 25.0716C8.54286 25.0829 8.55871 25.0925 8.57549 25.1004L8.61427 25.068C8.62396 25.068 8.62396 25.0273 8.62396 25.0189C8.62396 25.0105 8.63245 24.983 8.63729 24.9662L8.67607 24.9518V24.9243L8.65183 24.8955L8.59609 24.8716ZM12.7051 26.309V26.3389C12.7051 26.3329 12.7051 26.3281 12.7051 26.3233V26.2994L12.7342 26.2874V26.2622H12.7051V26.309ZM7.46069 22.3082C7.46069 22.3082 7.43161 22.2735 7.46069 22.2004C7.46069 22.2004 7.44373 22.1549 7.44009 22.1477C7.43646 22.1405 7.41343 22.0795 7.41343 22.0795C7.41101 22.0528 7.41101 22.0259 7.41343 21.9992C7.41343 21.992 7.4304 21.9824 7.4304 21.9824V21.9525L7.40132 21.9285C7.40253 21.9174 7.40253 21.9061 7.40132 21.895C7.40132 21.877 7.38799 21.877 7.38799 21.877C7.38215 21.859 7.37769 21.8406 7.37466 21.8219C7.37466 21.8111 7.37466 21.7884 7.37466 21.7836C7.37466 21.7788 7.36375 21.756 7.36375 21.756C7.35912 21.7396 7.35628 21.7228 7.35527 21.7057C7.35527 21.6902 7.36133 21.6746 7.36375 21.659C7.36552 21.6332 7.36916 21.6076 7.37466 21.5824L7.39162 21.5428V21.4578L7.37829 21.4039L7.36497 21.3763L7.33467 21.4099V21.4662L7.30317 21.5285V21.6123L7.28741 21.6638V21.7249L7.30923 21.7728V21.8171C7.30697 21.828 7.30414 21.8388 7.30074 21.8495C7.30335 21.8628 7.30784 21.8757 7.31407 21.8878L7.34194 21.9333C7.34437 21.9556 7.34437 21.9781 7.34194 22.0004L7.35891 22.0483C7.35891 22.0567 7.39041 22.1238 7.39405 22.1346C7.39768 22.1453 7.41586 22.1992 7.41586 22.1992L7.40616 22.234V22.2687C7.41058 22.2808 7.41627 22.2925 7.42313 22.3034L7.44615 22.3286V22.4352C7.44615 22.4436 7.43282 22.4975 7.43282 22.4975L7.4098 22.5346L7.40011 22.5813H7.41586L7.42676 22.5646V22.5358L7.43767 22.5226L7.44858 22.5011L7.45827 22.4747L7.46918 22.44L7.48856 22.3538L7.47645 22.3238L7.46069 22.3082ZM11.7818 9.97066C9.4515 9.97066 7.17357 10.6537 5.23604 11.9335C3.29852 13.2133 1.78842 15.0323 0.896722 17.1605C0.00502452 19.2886 -0.228223 21.6304 0.226477 23.8896C0.681177 26.1489 1.8034 28.2241 3.45123 29.8528C5.09906 31.4815 7.19848 32.5906 9.484 33.0399C11.7695 33.4891 14.1385 33.2583 16.2913 32.3766C18.4441 31.495 20.2841 30.002 21.5785 28.0866C22.873 26.1712 23.5638 23.9194 23.5635 21.6159C23.5638 20.0863 23.2593 18.5717 22.6674 17.1584C22.0754 15.7452 21.2076 14.4611 20.1135 13.3795C19.0194 12.2979 17.7205 11.4399 16.2909 10.8546C14.8613 10.2693 13.3291 9.9681 11.7818 9.96826V9.97066ZM10.4876 26.8983L10.4525 26.8875L10.4295 26.8636H10.4598C10.4753 26.8704 10.4903 26.8784 10.5046 26.8875C10.5094 26.8983 10.4876 26.8983 10.4876 26.8983ZM10.5955 26.9774L10.5712 26.9702V26.951H10.5955L10.6088 26.963L10.5955 26.9774ZM10.6427 26.9989C10.633 26.9989 10.633 26.9881 10.633 26.9881L10.6427 26.9774L10.6706 26.9989H10.6427ZM10.7324 27.0217L10.7057 27.0157V27.0013H10.7312L10.7433 27.0109L10.7324 27.0217ZM10.7457 26.9941L10.7554 26.9833L10.7833 27.0061H10.7554C10.7457 27.0061 10.7457 26.9941 10.7457 26.9941ZM10.7784 27.0444C10.7687 27.0444 10.7687 27.0336 10.7687 27.0336L10.7784 27.0217L10.8051 27.0444H10.7784ZM10.8233 27.078C10.8136 27.078 10.8136 27.0672 10.8136 27.0672L10.8233 27.0552L10.8511 27.078H10.8233ZM10.8233 27.0384V27.0217H10.8463L10.8608 27.0336L10.8475 27.0444L10.8233 27.0384ZM10.8608 27.072V27.0552H10.8839L10.8984 27.0672L10.8851 27.078L10.8608 27.072ZM10.9105 27.1091L10.8863 27.1019V27.0864H10.9069L10.9202 27.0971L10.9105 27.1091ZM10.919 27.0648L10.9275 27.0552L10.9566 27.0768H10.9287C10.9178 27.0768 10.9178 27.0708 10.9178 27.0708L10.919 27.0648ZM10.965 27.1187H10.9408V27.1019H10.9638L10.9784 27.1139L10.965 27.1187ZM11.0232 27.1474L10.9978 27.1403V27.1247H11.022L11.0353 27.1355L11.0232 27.1474ZM11.0087 27.1091C10.999 27.1091 10.999 27.0971 10.999 27.0971L11.0087 27.0864L11.0365 27.1091H11.0087ZM11.0608 27.1498C11.0511 27.1498 11.0511 27.1391 11.0511 27.1391L11.0608 27.1283L11.0826 27.1498H11.0608ZM11.1153 27.169C11.1124 27.169 11.1096 27.1679 11.1076 27.1658C11.1055 27.1638 11.1044 27.1611 11.1044 27.1582L11.1153 27.1474L11.142 27.169H11.1153ZM16.9195 27.0959C16.9135 27.1175 16.9063 27.1387 16.8977 27.1594L16.8674 27.2001L16.8505 27.2277C16.8517 27.2388 16.8517 27.2501 16.8505 27.2612V27.2864L16.8371 27.3103C16.8384 27.3305 16.8324 27.3505 16.8202 27.3666C16.8147 27.397 16.8023 27.4257 16.7838 27.4505C16.7785 27.47 16.772 27.4892 16.7644 27.508C16.7554 27.5244 16.7448 27.5401 16.7329 27.5547C16.7198 27.5647 16.7079 27.5764 16.6978 27.5894L16.6796 27.623L16.6481 27.6721C16.636 27.6925 16.6566 27.7116 16.6093 27.7272L16.5621 27.744L16.5463 27.7607V27.7955L16.5185 27.8158H16.4809L16.4458 27.8673L16.4142 27.8925V27.9715L16.453 27.9871L16.4361 28.0302H16.3815L16.3658 27.9967C16.3592 27.9815 16.3535 27.9659 16.3488 27.95C16.3448 27.9344 16.3396 27.9192 16.3331 27.9045C16.3282 27.904 16.3232 27.9046 16.3186 27.9063C16.314 27.9079 16.3098 27.9106 16.3064 27.914C16.2943 27.9261 16.2814 27.9374 16.2676 27.9476C16.264 27.9588 16.2578 27.9691 16.2494 27.9775C16.2313 27.9858 16.2122 27.9919 16.1925 27.9955C16.1928 27.9661 16.2007 27.9372 16.2155 27.9117C16.2199 27.9072 16.2233 27.902 16.2256 27.8962C16.2279 27.8904 16.229 27.8843 16.2288 27.8781C16.2288 27.8781 16.2288 27.8697 16.2288 27.8649H16.2155H16.1998L16.1683 27.9033V27.9404L16.1513 27.9799L16.0822 28.0087L16.0265 28.0494L15.9817 28.1201L15.9199 28.1524C15.9126 28.1524 15.8544 28.1788 15.8484 28.1836C15.8423 28.1883 15.766 28.2638 15.766 28.2638L15.6848 28.3093L15.6545 28.3333L15.6412 28.4147L15.5878 28.4255L15.566 28.4662L15.5769 28.5034L15.5091 28.5237L15.4873 28.5597L15.4667 28.61L15.4461 28.6399L15.4558 28.6783L15.4824 28.6986L15.5091 28.7154V28.737L15.4703 28.7561H15.4194L15.4012 28.7681L15.3685 28.7561L15.3491 28.731H15.3237L15.297 28.7393L15.274 28.7597L15.2837 28.7873L15.2425 28.8076L15.2025 28.8304L15.1746 28.8196L15.1322 28.8304L15.1056 28.822L15.1225 28.7968L15.1686 28.7753L15.1771 28.7549L15.211 28.7441C15.211 28.7441 15.2352 28.731 15.2316 28.7214L15.2207 28.6759L15.2049 28.6471H15.1819L15.1577 28.6759L15.1819 28.6926L15.1625 28.7166L15.1371 28.7262V28.7561L15.0922 28.7657L15.0595 28.7465H14.9929L14.9735 28.7298L14.9408 28.7393L14.9117 28.7154L14.8414 28.6938L14.8099 28.7106H14.7578L14.6294 28.7214L14.5954 28.6938L14.5724 28.6603L14.6015 28.6315L14.5857 28.6076L14.6015 28.5597L14.5833 28.5381C14.5821 28.5254 14.5821 28.5125 14.5833 28.4998L14.6051 28.4794L14.5663 28.4603L14.5542 28.4327C14.5542 28.4327 14.5542 28.3968 14.5457 28.392C14.5373 28.3872 14.5142 28.3728 14.5142 28.368V28.3189L14.4924 28.2962V28.2578L14.5142 28.2303H14.5821L14.5954 28.2147V28.1907C14.5954 28.1836 14.5663 28.1728 14.5663 28.1728L14.5348 28.1548L14.5142 28.1404L14.4924 28.1536L14.4742 28.186L14.4864 28.2027L14.467 28.2363V28.2758L14.4536 28.3105C14.4404 28.3086 14.4274 28.3054 14.4149 28.3009C14.4005 28.2933 14.3855 28.2869 14.37 28.2818H14.3216L14.2985 28.2363L14.261 28.2243L14.2355 28.2027H14.2089V28.1812L14.238 28.15C14.2539 28.144 14.2706 28.1404 14.2876 28.1392C14.307 28.1392 14.3167 28.1297 14.3155 28.1249C14.3143 28.1201 14.3082 28.1081 14.2973 28.1081H14.2404L14.2174 28.1297L14.1943 28.1584L14.1786 28.1488V28.1081L14.1689 28.0829H14.1483L14.1265 28.0638L14.1131 28.0422L14.1228 28.0266L14.1325 28.0087L14.1035 27.9715L14.0804 27.956V27.9392L14.0962 27.9224L14.0816 27.8985H14.0417V27.8793L14.0235 27.8518L13.9944 27.8146L13.9629 27.7775L13.9229 27.7499L13.9047 27.7296H13.8781L13.8623 27.7392L13.8405 27.7284L13.8538 27.7056C13.8487 27.6972 13.8442 27.6884 13.8405 27.6793V27.635L13.8248 27.5966H13.8017L13.7823 27.5703L13.7605 27.5379L13.7448 27.5116H13.6903L13.6624 27.4948H13.5049L13.4867 27.4828L13.4746 27.4709H13.4067V27.4888L13.4212 27.4996H13.4479L13.4637 27.5164V27.5319L13.4515 27.5415V27.5499L13.4612 27.5619V27.5787H13.4491V27.6038L13.4624 27.6134V27.6913L13.4491 27.6984V27.7296H13.4285L13.4116 27.72H13.3946V27.7392L13.4164 27.7559V27.7739L13.4043 27.7871H13.3776L13.357 27.7979V27.8314H13.3776L13.3897 27.841V27.8625H13.4103L13.4188 27.8757L13.4067 27.8877C13.404 27.8951 13.4007 27.9023 13.397 27.9093L13.4067 27.9188H13.4382L13.454 27.9344L13.4685 27.9656L13.4891 27.9751V27.9991L13.4806 28.0087H13.4164L13.3897 28.0003H13.3643L13.357 27.9727L13.3401 27.9512L13.3328 27.926H13.3122L13.3001 27.9392V27.9608H13.277L13.231 27.9512V27.9847L13.2577 28.0003L13.2831 28.0135V28.029H13.2589L13.2249 28.0123L13.2031 27.9967H13.0747L13.0541 27.9859L13.0165 28.0027V28.029H12.9947L12.9765 28.0123C12.967 28.0036 12.9569 27.9956 12.9462 27.9883L12.9135 27.9787H12.8748V28.0147L12.8505 28.029H12.8287L12.8093 27.9991L12.7899 27.9847V27.9608H12.7621L12.7245 27.9093L12.7439 27.8829L12.71 27.8649L12.7184 27.8566L12.6918 27.8661L12.6675 27.8338L12.6918 27.8194C12.6918 27.8194 12.7112 27.8038 12.7112 27.8003V27.7787L12.6809 27.7583L12.6675 27.7344L12.6469 27.7152L12.6009 27.7044V27.6481L12.6142 27.6302L12.6372 27.6182V27.5966L12.5961 27.5751H12.5621C12.5609 27.5822 12.5609 27.5895 12.5621 27.5966V27.6146L12.5379 27.6374L12.51 27.6481H12.4749L12.4543 27.6589H12.4313L12.4203 27.635L12.3925 27.6278V27.6038L12.4131 27.5846L12.4264 27.5679C12.4328 27.5602 12.4401 27.5534 12.4482 27.5475H12.4821L12.4543 27.5164H12.4107V27.5044L12.3876 27.4816L12.3755 27.4457H12.3283V27.4062L12.3064 27.387L12.2895 27.369L12.2737 27.3415L12.2834 27.3175V27.2972H12.3173L12.3283 27.2804L12.3513 27.2636V27.2397L12.3682 27.2169V27.1954C12.3694 27.1858 12.3694 27.1762 12.3682 27.1666L12.3404 27.1355L12.3125 27.1187H12.2701L12.2386 27.1091L12.2313 27.0899H12.1901L12.1744 27.0744H12.1392L12.1053 27.0564V27.0324H12.0568V27.0085L12.0762 26.9893H12.0423L12.0096 26.9989L11.9914 27.0181H11.9357L11.9187 26.9917L11.9041 26.9821V26.9666L11.9138 26.9462L11.9296 26.9246H11.972V26.9127H11.9974C11.9962 26.9051 11.9962 26.8974 11.9974 26.8899H12.0217V26.9246H12.0338L12.0459 26.9055L12.0556 26.8899H12.0968V26.9151H12.1186V26.9007C12.1246 26.8938 12.1315 26.8877 12.1392 26.8827H12.2398V26.8995C12.2455 26.9042 12.2521 26.9079 12.2592 26.9103H12.2858L12.3052 26.8971H12.3537L12.4906 26.9103L12.4991 26.9342H12.5197L12.5524 26.9462L12.5718 26.9702L12.6094 26.9857L12.6263 27.0265V27.0564L12.6179 27.0744C12.6218 27.083 12.6263 27.0914 12.6312 27.0995V27.1211L12.6179 27.1379V27.2373H12.6372V27.2205C12.6372 27.2205 12.6506 27.2205 12.6506 27.2121C12.65 27.2053 12.65 27.1985 12.6506 27.1918C12.6506 27.1858 12.6506 27.1606 12.6603 27.1606H12.6736L12.6881 27.1762V27.2013C12.6893 27.2065 12.6893 27.2118 12.6881 27.2169C12.6852 27.2182 12.6827 27.2204 12.6812 27.2233C12.6797 27.2261 12.6791 27.2293 12.6797 27.2325C12.6797 27.2325 12.6797 27.2493 12.6918 27.2493H12.7124V27.2229C12.7192 27.2231 12.7258 27.2252 12.7314 27.2291C12.737 27.2329 12.7413 27.2382 12.7439 27.2445V27.2636H12.7596C12.7608 27.2577 12.7608 27.2516 12.7596 27.2457C12.7596 27.2457 12.7499 27.2205 12.7596 27.2205H12.7802L12.796 27.2373H12.8154V27.2229C12.8154 27.2229 12.8057 27.2085 12.8154 27.2085H12.8384C12.8384 27.2085 12.8481 27.1978 12.8481 27.193V27.1558H12.8748C12.8748 27.1558 12.8966 27.1462 12.8966 27.1427C12.8966 27.1391 12.8966 27.1355 12.8966 27.1271C12.8979 27.1247 12.8999 27.1227 12.9022 27.1213C12.9045 27.1198 12.9071 27.1189 12.9099 27.1187H12.9244L12.9329 27.1115C12.9348 27.1041 12.9372 27.0969 12.9402 27.0899H12.962C12.9626 27.0923 12.9638 27.0944 12.9655 27.0961C12.9672 27.0978 12.9693 27.0989 12.9717 27.0995H13.0117C13.0129 27.096 13.0129 27.0922 13.0117 27.0887L13.0008 27.072C13.0008 27.0612 12.985 27.072 12.985 27.0612V27.048L12.962 27.0372C12.9555 27.035 12.9493 27.0318 12.9438 27.0277L12.9244 27.0193H12.905V27.0456C12.905 27.0576 12.9172 27.0576 12.905 27.0576C12.8926 27.06 12.8799 27.06 12.8675 27.0576C12.8542 27.0503 12.8417 27.0419 12.8299 27.0324V26.9953H12.8687C12.8699 26.9918 12.8699 26.988 12.8687 26.9845L12.8554 26.9702L12.8348 26.957V26.9366L12.813 26.9187L12.7911 26.8719L12.7705 26.8396L12.7536 26.824H12.7354L12.7233 26.8396L12.67 26.8228C12.664 26.8145 12.6587 26.8057 12.6542 26.7965V26.7725L12.6797 26.7426H12.7039V26.7665H12.7281C12.7293 26.761 12.7293 26.7553 12.7281 26.7498H12.7499L12.7681 26.7725L12.7863 26.7821L12.8008 26.7737H12.8154L12.8348 26.7857L12.8529 26.8001L12.8699 26.7773C12.8711 26.7658 12.8711 26.7541 12.8699 26.7426C12.8559 26.7432 12.8421 26.7456 12.8287 26.7498L12.8166 26.7114H12.7633V26.733L12.7087 26.7426L12.6736 26.7234C12.6616 26.7189 12.6502 26.7128 12.6397 26.7054V26.5725L12.6615 26.5306V26.4803L12.6918 26.4539L12.716 26.4216C12.7125 26.4143 12.7096 26.4066 12.7075 26.3988C12.7031 26.3835 12.6999 26.3679 12.6978 26.3521C12.6973 26.3477 12.6973 26.3433 12.6978 26.3389L12.6651 26.3796L12.6142 26.4264L12.5803 26.4419H12.5221L12.4809 26.4551L12.4458 26.4731L12.401 26.4994L12.3888 26.5389L12.3464 26.6264L12.2737 26.6779L12.1925 26.7078L12.1489 26.745L12.0956 26.7917L12.0253 26.83L11.926 26.8636L11.8945 26.8947H11.8121L11.7406 26.9127C11.7194 26.9064 11.698 26.9012 11.6763 26.8971H11.5915L11.5261 26.8767L11.4316 26.8492H11.3298L11.2692 26.8336H11.1747C11.1698 26.8251 11.1627 26.8181 11.1541 26.8132C11.1365 26.8038 11.1195 26.7934 11.1032 26.7821L11.0753 26.7641V26.7162L11.0596 26.7007V26.6635L11.0935 26.6288L11.1141 26.5869C11.1093 26.5689 11.1032 26.5513 11.0959 26.5342C11.0959 26.5342 11.0693 26.5126 11.0693 26.5066C11.0693 26.5006 11.0596 26.4419 11.0693 26.4311C11.0762 26.4144 11.0795 26.3965 11.0789 26.3784L11.0571 26.3653L11.0414 26.412L11.005 26.4407L10.965 26.4611L10.9178 26.4743H10.8814L10.8584 26.4886C10.863 26.497 10.8687 26.5046 10.8754 26.5114H10.9105L10.9844 26.5545H11.0317L11.0596 26.5641V26.5917C11.0529 26.6012 11.0451 26.6101 11.0365 26.618L10.999 26.636L10.9663 26.6456H10.9396L10.9129 26.6551V26.6779L10.9469 26.6911H10.9905L11.0075 26.6719L11.0172 26.6503L11.0293 26.63H11.0474V26.6456L11.0378 26.6671V26.6827C11.0417 26.6904 11.0475 26.697 11.0547 26.7019C11.0607 26.7106 11.0659 26.7198 11.0705 26.7294L11.0608 26.7486V26.7725L11.0789 26.7857L11.062 26.8061V26.8228H11.0911L11.1068 26.8073L11.1286 26.824L11.1189 26.842V26.8672H11.1638L11.1735 26.8468L11.2886 26.8588L11.3055 26.8863L11.2801 26.9103L11.2704 26.927V26.9378H11.2983L11.3128 26.9175L11.331 26.9067L11.3443 26.9222V26.9462L11.3649 26.963L11.4098 26.975C11.4214 26.9738 11.4332 26.9738 11.4449 26.975L11.4594 26.9845C11.4719 26.9857 11.4845 26.9857 11.497 26.9845H11.5249C11.5322 26.9834 11.5389 26.98 11.5443 26.975C11.5587 26.9726 11.5734 26.9726 11.5879 26.975H11.6848L11.7127 26.9582H11.7551C11.7563 26.9625 11.7563 26.9671 11.7551 26.9714C11.7563 26.9781 11.7563 26.985 11.7551 26.9917L11.7454 27.0121C11.7414 27.023 11.7361 27.0335 11.7297 27.0432L11.6885 27.1139V27.1307H11.6412C11.6345 27.1283 11.6273 27.1283 11.6206 27.1307H11.5903C11.5852 27.1243 11.5779 27.12 11.5697 27.1187H11.4897L11.4619 27.1283H11.4364C11.4331 27.1351 11.429 27.1415 11.4243 27.1474C11.4153 27.1524 11.4054 27.1557 11.3952 27.157C11.39 27.1622 11.3832 27.1656 11.3758 27.1666L11.3371 27.1522H11.3237C11.3237 27.1522 11.2813 27.1367 11.2765 27.1379C11.2712 27.1413 11.2663 27.1454 11.2619 27.1498C11.2479 27.1442 11.2333 27.1402 11.2183 27.1379H11.1395L11.0814 27.1283L11.0632 27.1091L11.0244 27.0792L10.9929 27.0648H10.965L10.9178 27.0217H10.8693L10.8451 27.0013L10.8099 26.9845L10.7481 26.9654L10.7106 26.975L10.6561 26.9654L10.633 26.9486L10.587 26.9234H10.5664L10.5106 26.8492L10.4488 26.8276H10.3931L10.341 26.8384L10.3252 26.7737L10.2634 26.7641L10.2271 26.7258L10.1883 26.7162L10.1302 26.6959L10.0829 26.6779C10.0841 26.6683 10.0841 26.6587 10.0829 26.6491L10.0478 26.612C10.0413 26.5986 10.0336 26.5858 10.0247 26.5737L9.99444 26.5162C9.9799 26.503 9.96536 26.4898 9.95203 26.4755L9.90356 26.4144L9.87569 26.3748L9.8151 26.3473L9.8042 26.3138V26.2886L9.78724 26.2766L9.763 26.2551L9.73755 26.206C9.72554 26.1903 9.71461 26.1739 9.70484 26.1568C9.70484 26.1485 9.6697 26.1353 9.6697 26.1353L9.64788 26.0754L9.61153 26.0347C9.62091 26.0199 9.62633 26.003 9.62729 25.9856C9.63334 25.9616 9.63334 25.9365 9.62729 25.9125C9.61638 25.8921 9.57882 25.7927 9.57882 25.7927L9.55458 25.7364C9.53708 25.7161 9.52128 25.6945 9.50732 25.6717C9.50854 25.6554 9.50854 25.639 9.50732 25.6226C9.50576 25.6084 9.50293 25.5944 9.49884 25.5807L9.47824 25.5543L9.44431 25.4992C9.44431 25.4992 9.41402 25.4741 9.41402 25.4669V25.4214C9.41173 25.4023 9.40767 25.3834 9.4019 25.3651L9.37646 25.3483L9.36918 25.3267V25.3064L9.35949 25.292L9.17046 25.201L8.9584 25.1758L8.88449 25.1399L8.9172 25.1926V25.2585H8.85419L8.79361 25.2082V25.1698H8.71606V25.2154L8.63729 25.2681L8.58519 25.2597L8.55247 25.1938V25.1543L8.50521 25.1315L8.41797 25.1219L8.38283 25.0896V25.0345L8.36707 25.0141L8.35011 24.9027L8.32345 24.868V24.741L8.29074 24.765L8.2665 24.741L8.27741 24.9806C8.20082 24.9389 8.14001 24.8737 8.10413 24.7949L8.05445 24.7662L7.95751 24.5913L7.97447 24.5733L7.91025 24.5338V24.5218L7.87874 24.5122L7.71516 24.3924L7.59398 24.2954L7.55036 24.2044V24.1553L7.51643 24.1181V23.9828L7.46918 23.9552L7.60731 23.7732V23.8031L7.66911 23.8259H7.75999C7.74887 23.7549 7.7428 23.6833 7.74182 23.6115L7.65578 23.5408L7.53461 23.3959L7.48129 23.324V23.2377L7.34437 23.118L7.26924 23.0054L7.24864 22.9383L7.24016 22.8916H7.2862L7.31044 22.8628H7.35406L7.36739 22.8005V22.7143L7.32982 22.6748L7.34558 22.6484V22.6221L7.31892 22.5969L7.34921 22.5298V22.464L7.32861 22.4101L7.31528 22.3034L7.28741 22.2699L7.30074 22.216V22.1465L7.30801 22.0902L7.24985 22.0016L7.21713 21.8914L7.20138 21.7992L7.16503 21.7333V21.6938L7.22562 21.7405L7.23531 21.6938C7.23652 21.681 7.23652 21.6682 7.23531 21.6554L7.2038 21.6171V21.5285L7.2341 21.4686V21.3919L7.27166 21.3212V21.2386L7.28378 21.1847L7.31407 21.1727V21.0889L7.32498 21.0565L7.34558 21.023V20.981L7.33467 20.8217L7.42676 20.6816L7.44494 20.5618L7.47645 20.4863L7.49705 20.4624H7.53946L7.54915 20.4133V20.363L7.6061 20.2971L7.6473 20.2875L7.80967 20.1749L7.85087 20.1342L7.89813 20.0935L7.94297 20.0432L7.98538 19.9952H8.01688L8.05687 19.9497V19.9042L8.07747 19.8647L8.10292 19.8539L8.1114 19.8862L8.1223 19.9234L8.08716 19.9449L8.09686 19.9761L8.12715 19.9665H8.16714V19.9377L8.15623 19.915L8.18168 19.891L8.21561 19.8299V19.6119L8.2459 19.5988L8.31133 19.5125V19.4574L8.36707 19.4227V19.3891L8.39494 19.3616L8.41312 19.3137V19.2813L8.43857 19.249L8.47734 19.2131L8.49552 19.1807L8.50764 19.128L8.56095 19.0777L8.59367 19.0022V18.9627L8.62639 18.934L8.61791 18.9124L8.59003 18.8561L8.60336 18.825L8.62275 18.7986L8.6482 18.7902V18.7651L8.63123 18.7363V18.7076L8.66395 18.6597V18.5051L8.63366 18.4656L8.60458 18.4381V18.4105L8.62881 18.3818H8.65547L8.68455 18.4069V18.3003L8.63729 18.25L8.61669 18.2296L8.59125 18.1985H8.56217V18.2536L8.53187 18.2344L8.50885 18.1985V18.1674L8.46159 18.1159L8.44463 18.0524L8.45796 18.0176L8.47492 17.9518L8.504 17.9086V17.8763L8.51248 17.8284L8.52945 17.7888L8.54641 17.7685L8.55611 17.7805L8.54278 17.8092L8.53308 17.8475L8.54278 17.8883L8.53187 17.9086V17.941L8.50521 17.9757V18.014L8.51491 18.0404L8.5343 18.0703H8.55126L8.56217 18.0404L8.55247 18.0188V17.9829H8.5864L8.60336 17.9613L8.5864 17.9326V17.8907L8.61669 17.8667C8.61553 17.8572 8.61553 17.8475 8.61669 17.838C8.62294 17.826 8.62982 17.8144 8.63729 17.8032L8.65668 17.8176L8.63729 17.8416V17.8835L8.66032 17.899L8.69303 17.8883V17.8475L8.70273 17.8272H8.72575C8.72696 17.8192 8.72696 17.8112 8.72575 17.8032V17.7853L8.74877 17.796L8.77301 17.832V17.8847L8.80815 17.8931L8.79845 17.9338L8.82269 17.9518L8.84329 17.9314C8.84537 17.9247 8.84822 17.9183 8.85177 17.9122L8.87964 17.923C8.87964 17.923 8.88691 17.8979 8.87964 17.8883L8.85056 17.8571L8.86147 17.8248V17.8032H8.81905L8.83238 17.7685L8.86268 17.7493L8.89297 17.7146L8.91842 17.7349H8.94508L8.96083 17.7182L8.98627 17.7373L8.97052 17.7745L8.95477 17.7996L8.97537 17.8463L8.99112 17.8787L9.03353 17.8487L9.01172 17.8188L9.02263 17.7805V17.7433L9.03232 17.7086L9.0614 17.6966L9.0711 17.7302L9.11351 17.7433L9.14865 17.7637L9.1644 17.7996L9.23105 17.8128V17.8739L9.19833 17.9553V17.9673C9.32324 17.7382 9.48442 17.5304 9.67575 17.3516C9.67517 17.3489 9.67517 17.346 9.67575 17.3433H9.62607L9.61032 17.3744L9.54004 17.4079L9.50005 17.4235V17.4511L9.47339 17.4594L9.44552 17.4415H9.42008V17.469L9.42735 17.4882L9.38251 17.5122L9.32677 17.5493L9.26497 17.5684C9.25054 17.5708 9.23634 17.5744 9.22256 17.5792C9.21678 17.5877 9.21029 17.5957 9.20318 17.6032L9.14986 17.6247H9.06504L9.03959 17.6439L9.0202 17.6307L8.98627 17.6224L8.97537 17.6463L8.95113 17.6559L8.93538 17.6906H8.90993V17.6595L8.9378 17.6367V17.6212H8.88328L8.87237 17.602V17.5816L8.91842 17.5661L8.9681 17.5744C8.97669 17.5687 8.9848 17.5623 8.99233 17.5553V17.5325C9.00268 17.5277 9.01371 17.5244 9.02505 17.5229H9.0505V17.4702H9.07473L9.09291 17.4427L9.06988 17.4331L9.0505 17.4127L9.0614 17.3888V17.3385L9.08685 17.3133V17.2127L9.11351 17.1875L9.13653 17.1396L9.1644 17.1001V17.0761L9.18621 17.0258H9.25528L9.26497 16.9911L9.288 16.9552L9.31102 16.9432L9.33162 16.9073L9.34495 16.8977L9.36434 16.8737L9.38373 16.8498V16.7935H9.35101L9.35949 16.7707C9.36704 16.7612 9.37393 16.7512 9.38009 16.7408V16.7216L9.40675 16.7096L9.41765 16.6785H9.45279V16.6497L9.46128 16.6258H9.4952L9.52913 16.6138L9.55095 16.6042L9.60668 16.6138V16.6449H9.63819V16.6174H9.73755L9.70726 16.6797L9.6806 16.7L9.64183 16.7264V16.803L9.61274 16.8198H9.57397L9.5461 16.8402L9.52429 16.8593L9.5049 16.8869L9.47945 16.8977L9.46006 16.9216H9.44068L9.41887 16.9384V16.9635H9.44189L9.46612 16.9779V16.9923L9.45279 17.0091V17.0282H9.46855L9.48915 17.0186V16.9887L9.50005 16.9588V16.936L9.5158 16.9084L9.54246 16.8773H9.56791L9.60063 16.8641L9.64183 16.8498L9.66848 16.8126L9.69999 16.7755C9.70126 16.7655 9.70126 16.7555 9.69999 16.7455V16.7276C9.69938 16.7212 9.69938 16.7148 9.69999 16.7084L9.71574 16.6833L9.7424 16.6737L9.76542 16.6605L9.78118 16.6377L9.81874 16.621H9.83692V16.6497L9.87084 16.6629L9.89872 16.6521L9.90841 16.6353L9.9181 16.6126L9.93749 16.5886L9.96657 16.5527H10.0235L10.0587 16.5299L10.1035 16.5024L10.1399 16.4641V16.4209L10.1495 16.361L10.1811 16.3131L10.2113 16.2413L10.2489 16.1802L10.2925 16.1251L10.3434 16.0915L10.3858 16.0376L10.4198 15.9993L10.4464 15.9897H10.4816C10.4828 15.9834 10.4828 15.9769 10.4816 15.9706C10.4751 15.9659 10.4682 15.9619 10.461 15.9586H10.4392V15.9394L10.4573 15.9298V15.8975L10.4392 15.8903L10.4161 15.9011H10.4016L10.4113 15.8915V15.8771H10.3798L10.3628 15.8963H10.3059V15.834L10.3277 15.816H10.3628L10.3519 15.7993L10.3374 15.7861C10.3265 15.7884 10.3159 15.792 10.3059 15.7969L10.2877 15.816H10.2695L10.2538 15.7993L10.2756 15.7825C10.284 15.7753 10.2913 15.7657 10.2998 15.7573V15.6963L10.2913 15.6771L10.2598 15.6495L10.215 15.6196H10.1435V15.6507C10.1398 15.6599 10.1353 15.6687 10.1302 15.6771L10.1132 15.6855L10.1023 15.6723V15.5525L10.1314 15.5321L10.1483 15.513H10.2332V15.4974L10.2598 15.4579H10.3422V15.4699H10.364L10.4173 15.4579V15.4004L10.4379 15.3848V15.3525L10.4537 15.2938L10.4913 15.271L10.524 15.2531L10.5652 15.2351H10.627V15.2123L10.6682 15.1656L10.7445 15.1273C10.7539 15.1172 10.7624 15.1064 10.77 15.0949L10.8124 15.0638L10.862 15.0374L10.8742 15.0255H10.9117L10.9311 15.0374L10.9966 15.0554L11.0232 15.0303L11.0656 15.0123H11.0753L11.1044 14.9979L11.1238 14.9859H11.2171C11.2243 14.9893 11.2312 14.9933 11.2377 14.9979L11.2559 15.0135H11.2753L11.2946 15.0039L11.3043 14.9907L11.3383 14.9704L11.4013 14.9476H11.417L11.4413 14.956C11.4631 14.9572 11.4849 14.9572 11.5067 14.956L11.5358 14.938L11.5636 14.9141V14.8985L11.6109 14.8901L11.6339 14.8721C11.6401 14.8661 11.6454 14.8593 11.6497 14.8518H11.7236L11.7393 14.8242L11.7636 14.8135L11.7915 14.7955H11.9054C11.9131 14.792 11.9205 14.7876 11.9272 14.7823V14.7332L11.9756 14.6937V14.6673L12.0096 14.6434H12.1307L12.2398 14.6529L12.2483 14.6841V14.7009L12.2034 14.6865L12.1804 14.7033L12.155 14.738L12.1186 14.7512L12.052 14.7596L12.0326 14.7715V14.7847H12.0883L12.1089 14.7943L12.098 14.8398L12.052 14.8614H12.0277L12.012 14.8889L12.0314 14.9033H12.0798L12.098 14.9201V14.9452L12.1174 14.9644H12.1501C12.1768 14.9644 12.2034 14.9644 12.2301 14.9644L12.2774 14.9464H12.3634V14.9656L12.4058 14.9776L12.3864 14.9883L12.3404 14.9991H12.3052L12.2652 15.0159V15.059H12.4094C12.407 15.0431 12.407 15.027 12.4094 15.0111L12.4288 14.9883H12.533L12.567 14.9967C12.5737 15.0091 12.5828 15.02 12.5936 15.0291L12.6288 15.0171C12.6369 15.0129 12.6433 15.0062 12.6469 14.9979C12.6469 14.9871 12.6469 14.9752 12.6372 14.9644C12.6336 14.9519 12.6336 14.9386 12.6372 14.9261L12.6748 14.8925L12.6615 14.8805H12.6142L12.5948 14.9189L12.5439 14.9416L12.5258 14.9284L12.5464 14.8973C12.5521 14.895 12.5574 14.8918 12.5621 14.8877L12.6033 14.853L12.6324 14.8338H12.6966L12.7572 14.8482L12.8263 14.8578H12.8687C12.8773 14.8492 12.8846 14.8396 12.8905 14.829C12.8905 14.829 12.8905 14.7991 12.9002 14.7991C12.9324 14.7911 12.964 14.7806 12.9947 14.7679C12.9947 14.7679 13.0189 14.7368 13.0202 14.732C13.0214 14.7272 13.0202 14.6949 13.0299 14.6949C13.0387 14.6937 13.0477 14.6937 13.0565 14.6949C13.0639 14.703 13.0704 14.7118 13.0759 14.7212C13.0933 14.726 13.1118 14.726 13.1292 14.7212C13.1304 14.7181 13.1304 14.7147 13.1292 14.7116C13.131 14.7079 13.132 14.7038 13.132 14.6997C13.132 14.6955 13.131 14.6914 13.1292 14.6877L13.1086 14.6685C13.1086 14.6685 13.0977 14.6541 13.1086 14.6541H13.1595V14.6026H13.1898C13.2135 14.5991 13.2369 14.5943 13.2601 14.5883V14.5571L13.2758 14.52H13.2843L13.3182 14.496L13.3922 14.4769L13.4479 14.4912C13.4639 14.4912 13.4799 14.4888 13.4952 14.4841L13.5303 14.4577C13.5303 14.4577 13.5473 14.4721 13.557 14.4577C13.5665 14.4508 13.5747 14.4423 13.5812 14.4325C13.5913 14.4313 13.6014 14.4313 13.6115 14.4325H13.6442L13.6636 14.4421L13.7084 14.411C13.7221 14.4035 13.7368 14.3978 13.7521 14.3942H14.1483L14.2198 14.4337H14.3191L14.3446 14.4481L14.3955 14.4577H14.5082L14.5433 14.4793L14.6645 14.5272L14.7008 14.5811L14.7808 14.6002V14.6314L14.8087 14.6218L14.822 14.6314L14.8402 14.6565L14.8971 14.6781L14.9129 14.714L14.9517 14.7739L14.9698 14.7919L14.9783 14.8254V14.8686L14.988 14.9237H15.0304L15.0486 14.9452V14.9596H15.0147V14.9967C15.0161 15.0053 15.0194 15.0135 15.0244 15.0207L15.0438 15.0446V15.0818L15.0838 15.1021L15.0934 15.1441V15.1824L15.1116 15.2291L15.1286 15.2722V15.3082L15.1662 15.3333L15.211 15.3992L15.2534 15.4231L15.3152 15.4735L15.3867 15.483H15.4279L15.4788 15.4711L15.5163 15.4543L15.6218 15.4208L15.6545 15.404L15.7017 15.398H15.7526L15.8169 15.4172L15.9005 15.4267L15.9623 15.4447L16.0229 15.4615L16.0519 15.4974L16.0883 15.5489L16.1089 15.598L16.1428 15.64V15.6675L16.1743 15.7022V15.7262L16.1901 15.7525L16.2034 15.7705L16.2167 15.7945L16.2276 15.7729L16.241 15.7478L16.27 15.7358H16.3064L16.3355 15.7621L16.3561 15.7921V15.8112L16.3827 15.8663L16.3961 15.8843H16.4264V15.8592L16.4155 15.8424L16.4276 15.8304H16.4688L16.4821 15.7825L16.5003 15.7525H16.5172L16.5378 15.7358H16.5827L16.6142 15.7454L16.5972 15.7633L16.5827 15.7945L16.6057 15.8065C16.6166 15.8208 16.6481 15.8292 16.6517 15.8208C16.6563 15.8132 16.662 15.8063 16.6687 15.8005C16.6823 15.8025 16.6957 15.8057 16.7087 15.81V15.8472L16.7002 15.8675H16.6614V15.8867C16.6614 15.8951 16.6384 15.8951 16.6384 15.8951C16.6372 15.8975 16.6366 15.9002 16.6366 15.9029C16.6366 15.9056 16.6372 15.9082 16.6384 15.9107C16.6494 15.9234 16.6621 15.9346 16.676 15.9442L16.7051 15.9694H16.7232V16.0041H16.7099L16.6978 16.0173L16.6663 16.0089L16.6336 15.9753L16.5875 15.9478L16.5451 15.9658C16.5463 15.9773 16.5463 15.989 16.5451 16.0005H16.5197C16.5185 16.0084 16.5185 16.0165 16.5197 16.0245V16.0604L16.4809 16.0508L16.4627 16.0173L16.43 15.9718C16.4209 15.9694 16.4113 15.9694 16.4021 15.9718L16.3815 15.9897H16.3173L16.2725 15.9478H16.2385L16.2143 15.9622L16.1973 15.9849L16.207 16.0185C16.207 16.0185 16.2252 16.0185 16.2252 16.028V16.0604H16.2567L16.2943 16.0508C16.2932 16.06 16.2932 16.0692 16.2943 16.0784L16.327 16.1119L16.3718 16.1287H16.4094L16.4482 16.1047L16.5051 16.0903L16.5984 16.1382L16.6154 16.2017L16.6881 16.2305L16.7293 16.2724L16.7778 16.3131V16.3491L16.8117 16.391L16.8359 16.4269L16.8141 16.4928V16.5539L16.8056 16.5898V16.6904L16.7935 16.7144V16.7695L16.7862 16.7935L16.7741 16.839L16.756 16.821L16.739 16.7791L16.7511 16.7479C16.7463 16.7366 16.7423 16.725 16.739 16.7132C16.7378 16.7005 16.7378 16.6876 16.739 16.6749V16.6258C16.7473 16.6184 16.755 16.6104 16.762 16.6018C16.7632 16.5911 16.7632 16.5802 16.762 16.5695C16.762 16.5635 16.7511 16.5599 16.7511 16.5503C16.7487 16.5392 16.7487 16.5278 16.7511 16.5168L16.7644 16.4952C16.7656 16.4869 16.7656 16.4784 16.7644 16.47H16.7366L16.7148 16.4904V16.5982L16.6833 16.6258H16.6021V16.5695L16.5863 16.5611H16.5633L16.573 16.5922L16.5609 16.6198L16.6033 16.6497V16.6749L16.5875 16.706L16.6639 16.7503L16.7002 16.7599L16.7232 16.7971L16.7669 16.8677L16.7099 16.8977H16.6433L16.5403 16.8809L16.4554 16.8402L16.3197 16.7587L16.2422 16.7503L16.1913 16.712L16.1343 16.6785H16.0774L16.0144 16.6306L15.972 16.5934L15.9332 16.5551L15.9126 16.5263V16.5L15.9344 16.5168C15.9465 16.5216 15.9591 16.5252 15.972 16.5275L16.0047 16.5395L16.0216 16.5659L16.0616 16.579H16.1343L16.1937 16.6198H16.2288V16.5982L16.1998 16.5778L16.1707 16.5491L16.1525 16.5096L16.1259 16.488L16.1089 16.4712L16.0495 16.4509L16.0265 16.4593L16.0144 16.476L16.0483 16.4892L16.0774 16.512L16.0689 16.5311L16.0398 16.5395L16.0192 16.512H15.9962L15.9501 16.4784H15.8362V16.5024L15.8084 16.4904H15.7878L15.7648 16.5192L15.7744 16.5683L15.732 16.579L15.6993 16.5659L15.6424 16.518H15.606L15.5515 16.5072L15.5042 16.4832L15.4836 16.4988V16.5299H15.4957L15.5139 16.5755L15.4873 16.5838H15.4679L15.44 16.5503L15.3818 16.5084V16.4724H15.3213V16.5204L15.3419 16.5431L15.3818 16.5659L15.3903 16.6006L15.3782 16.6425L15.3903 16.6617C15.3856 16.6725 15.3819 16.6837 15.3794 16.6952C15.3767 16.7127 15.3726 16.7299 15.3673 16.7467C15.3673 16.7467 15.3479 16.7467 15.3443 16.7467C15.3406 16.7467 15.3225 16.8042 15.3225 16.8042L15.3031 16.7803V16.7396L15.2752 16.7132V16.5994L15.2328 16.5515L15.2219 16.5012L15.1904 16.476L15.1589 16.4281L15.1383 16.409H15.1189L15.1019 16.4389C15.092 16.4445 15.0814 16.4489 15.0704 16.4521H15.0413L15.0316 16.4904L14.9953 16.482C14.9875 16.4647 14.9773 16.4486 14.965 16.4341H14.8996L14.8826 16.4149H14.7845L14.7711 16.4341H14.742L14.7142 16.4054H14.6899C14.6778 16.4054 14.6778 16.4293 14.6778 16.4293H14.5966L14.5882 16.4581L14.5482 16.4772L14.53 16.5323C14.53 16.5323 14.53 16.5743 14.5433 16.5743L14.5688 16.5946V16.6318C14.57 16.6477 14.57 16.6637 14.5688 16.6797L14.5482 16.7216V16.8114L14.5676 16.839C14.5717 16.8486 14.5745 16.8586 14.576 16.8689C14.5748 16.8805 14.5748 16.8921 14.576 16.9037L14.6039 16.9348L14.6257 16.9624L14.6378 16.9959C14.639 17.0082 14.639 17.0207 14.6378 17.033L14.6245 17.1097C14.6227 17.1259 14.6195 17.1419 14.6148 17.1576C14.6104 17.1732 14.6047 17.1884 14.5978 17.2031C14.592 17.2155 14.5895 17.2291 14.5906 17.2426C14.5856 17.257 14.5824 17.2719 14.5809 17.287C14.5785 17.2984 14.5785 17.3102 14.5809 17.3217C14.5875 17.3324 14.5932 17.3436 14.5978 17.3552C14.6065 17.3653 14.6127 17.3772 14.616 17.39V17.4738C14.616 17.4738 14.6063 17.493 14.5978 17.493C14.5899 17.4966 14.5825 17.5015 14.576 17.5074H14.5542C14.5542 17.5074 14.5542 17.499 14.536 17.499H14.4961C14.49 17.5138 14.4867 17.5297 14.4864 17.5457C14.4876 17.5556 14.4914 17.5651 14.4973 17.5732C14.5049 17.5828 14.5139 17.5913 14.5239 17.5984C14.5336 17.6056 14.5336 17.6068 14.5336 17.6164V17.6403C14.5312 17.6481 14.5312 17.6565 14.5336 17.6643C14.5361 17.6844 14.5397 17.7044 14.5445 17.7242C14.553 17.7409 14.5445 17.7314 14.553 17.7505C14.5615 17.7697 14.5676 17.7721 14.5736 17.7829C14.5918 17.814 14.5736 17.7948 14.5918 17.814C14.61 17.8332 14.5918 17.8332 14.6136 17.8332H14.6451C14.6691 17.8367 14.6924 17.844 14.7142 17.8547L14.7529 17.8799C14.7565 17.8897 14.7593 17.8997 14.7614 17.9098V17.9278C14.7614 17.9386 14.7323 17.9278 14.7614 17.9386L14.7905 17.9553C14.8055 17.9506 14.8216 17.9506 14.8366 17.9553H14.8547L14.8669 17.9793C14.8669 17.9793 14.8463 17.9793 14.8669 18.0057C14.8875 18.032 14.879 18.0284 14.8971 18.0284H14.9238L14.9735 18.044V18.0608C14.9723 18.0687 14.9723 18.0768 14.9735 18.0847C14.9723 18.091 14.9723 18.0975 14.9735 18.1039C14.9735 18.1135 14.9541 18.1039 14.9735 18.1135C14.9929 18.123 14.9965 18.1194 15.0038 18.1242C15.011 18.129 15.0232 18.1362 15.0232 18.1458C15.0256 18.154 15.0256 18.1627 15.0232 18.171C15.0208 18.1779 15.0208 18.1855 15.0232 18.1925V18.2225C15.0232 18.2308 15.011 18.2141 15.0232 18.2308C15.0353 18.2476 15.0365 18.2464 15.045 18.2464L15.0801 18.268C15.0886 18.2668 15.0971 18.2668 15.1056 18.268C15.1213 18.2788 15.1165 18.268 15.1419 18.2788C15.1674 18.2895 15.1686 18.2788 15.1686 18.2883C15.1698 18.2959 15.1698 18.3036 15.1686 18.3111L15.1589 18.3363C15.1565 18.3394 15.1552 18.3431 15.1552 18.347C15.1552 18.3509 15.1565 18.3547 15.1589 18.3578C15.1612 18.3627 15.1625 18.368 15.1625 18.3734C15.1625 18.3788 15.1612 18.3841 15.1589 18.389C15.1589 18.4009 15.1589 18.4081 15.1589 18.4129L15.1783 18.4441C15.1708 18.4548 15.1603 18.4632 15.148 18.468C15.14 18.4789 15.1331 18.4905 15.1274 18.5028C15.1262 18.5099 15.1262 18.5172 15.1274 18.5243C15.1274 18.5339 15.1274 18.5339 15.1528 18.5339C15.1783 18.5339 15.1698 18.5255 15.1795 18.5339C15.1892 18.5423 15.1892 18.5339 15.1892 18.5495C15.1904 18.5654 15.1904 18.5814 15.1892 18.5974C15.1904 18.6097 15.1904 18.6222 15.1892 18.6345C15.1858 18.6527 15.1793 18.6701 15.1698 18.686L15.1456 18.7064L15.1116 18.7279L15.0704 18.7699C15.0451 18.7832 15.0208 18.7984 14.9977 18.8154C14.9977 18.8226 15.011 18.8334 14.9856 18.8334C14.9621 18.838 14.9393 18.8457 14.9177 18.8561C14.9005 18.8702 14.8864 18.8877 14.8765 18.9076V18.9519C14.8843 18.9622 14.8912 18.973 14.8971 18.9843C14.8996 18.9994 14.8996 19.0147 14.8971 19.0298C14.8971 19.037 14.8838 19.0406 14.8838 19.0538C14.8859 19.0672 14.8892 19.0804 14.8935 19.0933C14.8935 19.1017 14.902 19.0933 14.8935 19.1112C14.8813 19.1344 14.8653 19.1555 14.8463 19.1735C14.8219 19.1807 14.7983 19.1903 14.776 19.2023C14.776 19.2119 14.776 19.2214 14.7529 19.2119C14.7219 19.1969 14.693 19.178 14.6669 19.1556C14.6629 19.1424 14.6563 19.1302 14.6475 19.1196C14.6353 19.0997 14.6177 19.0835 14.5966 19.0729C14.5789 19.0695 14.5617 19.0634 14.5457 19.0549L14.4973 19.0166C14.4815 19.0154 14.4657 19.0154 14.45 19.0166C14.45 19.0166 14.4197 18.9927 14.4197 18.9831V18.9555H14.4549V18.9256C14.4509 18.9167 14.4477 18.9075 14.4452 18.898L14.4694 18.8777C14.475 18.8704 14.4795 18.8623 14.4827 18.8537C14.4827 18.8441 14.4924 18.8369 14.4827 18.8202C14.4758 18.8111 14.4705 18.801 14.467 18.7902V18.7399L14.4415 18.6944L14.4076 18.6716H14.387L14.341 18.6609C14.3182 18.6494 14.2947 18.6394 14.2707 18.6309H14.2161C14.2161 18.6309 14.2089 18.6621 14.2028 18.6621H14.1786L14.1325 18.6501C14.1228 18.6189 14.1241 18.6321 14.1325 18.6189C14.141 18.6058 14.1483 18.613 14.1483 18.6058C14.1483 18.5986 14.1483 18.5962 14.1483 18.589C14.1483 18.5818 14.1483 18.5662 14.1362 18.5626C14.1292 18.56 14.1227 18.5564 14.1168 18.5519C14.1031 18.5529 14.0897 18.5557 14.0768 18.5602H14.0392L14.032 18.5806L14.0429 18.6034C14.0436 18.6109 14.0436 18.6186 14.0429 18.6261H14.0332C14.0102 18.6261 14.0235 18.6381 14.0102 18.6261L13.9968 18.613L13.9374 18.5962C13.9305 18.6101 13.9228 18.6237 13.9144 18.6369L13.895 18.6453C13.895 18.6453 13.8526 18.6513 13.8478 18.6453C13.8429 18.6393 13.8381 18.6285 13.8296 18.6285H13.8017C13.7953 18.6173 13.7872 18.6072 13.7775 18.5986C13.769 18.5986 13.7218 18.5758 13.7218 18.5758C13.7214 18.5622 13.7243 18.5486 13.7302 18.5363V18.4656C13.7102 18.462 13.6897 18.462 13.6697 18.4656L13.66 18.4848H13.6139L13.5982 18.4764L13.5703 18.5004V18.5662C13.5651 18.576 13.5614 18.5865 13.5594 18.5974C13.5672 18.61 13.5766 18.6217 13.5873 18.6321L13.5969 18.6489V18.68C13.5969 18.68 13.5667 18.7112 13.6175 18.7303L13.6769 18.7435V18.7651C13.6771 18.7843 13.6839 18.8029 13.6963 18.8178C13.7157 18.8429 13.6697 18.8429 13.7157 18.8429H13.8296L13.8853 18.8645C13.8962 18.8657 13.9072 18.8657 13.9181 18.8645L13.9593 18.8549H14.0017L14.0114 18.8729C14.0049 18.8822 13.9996 18.8923 13.9956 18.9028C13.9956 18.91 13.9544 18.9244 13.9496 18.9292C13.9447 18.934 13.9241 18.9292 13.9241 18.9531C13.9236 18.9587 13.9218 18.9641 13.9188 18.9688C13.9159 18.9736 13.9119 18.9776 13.9072 18.9807C13.8966 18.9868 13.8865 18.9936 13.8769 19.001C13.8769 19.001 13.8538 19.019 13.8538 19.0274C13.8538 19.0358 13.8381 19.0514 13.8538 19.0514L13.8829 19.0765C13.8902 19.0765 13.9229 19.0897 13.9229 19.0993C13.9256 19.1073 13.9312 19.1142 13.9387 19.1184C13.958 19.1232 13.9771 19.1292 13.9956 19.1364C13.9956 19.1364 14.0114 19.1747 14.0198 19.1747C14.032 19.1794 14.0446 19.183 14.0574 19.1855L14.0889 19.2143L14.118 19.237L14.1556 19.2694L14.1762 19.2885V19.3125L14.2077 19.34C14.2128 19.3451 14.2172 19.3507 14.221 19.3568C14.2231 19.3669 14.2268 19.3766 14.2319 19.3855C14.2319 19.3855 14.2428 19.4131 14.221 19.4131H14.1786L14.1374 19.4418L14.0986 19.4251C14.0986 19.4251 14.1119 19.3975 14.0986 19.3975L14.0417 19.4071L14.0126 19.4203L13.9908 19.4011C13.9908 19.4011 13.9799 19.3688 13.9556 19.3688H13.9035L13.8708 19.352C13.8539 19.3496 13.8368 19.3496 13.8199 19.352L13.7896 19.3688H13.7278L13.6975 19.3855L13.6854 19.4059H13.66L13.6248 19.3939H13.5836L13.5594 19.4131L13.5315 19.4299L13.4976 19.4215C13.485 19.4165 13.4728 19.4105 13.4612 19.4035L13.454 19.376L13.4406 19.3556C13.4435 19.3523 13.447 19.3497 13.451 19.3478C13.455 19.346 13.4593 19.3449 13.4637 19.3448C13.4782 19.3448 13.4891 19.3364 13.4976 19.3448C13.5061 19.3532 13.5061 19.352 13.5158 19.352C13.5247 19.3449 13.5329 19.3369 13.54 19.3281C13.5485 19.3209 13.5557 19.3125 13.5557 19.3077C13.5557 19.3029 13.5461 19.2885 13.5557 19.2837C13.5654 19.2789 13.5739 19.2837 13.5739 19.2706C13.5739 19.2574 13.5933 19.2622 13.5739 19.255C13.5616 19.2498 13.5485 19.247 13.5351 19.2466L13.5061 19.2646C13.5032 19.2625 13.5008 19.2598 13.4991 19.2567C13.4974 19.2536 13.4965 19.2501 13.4964 19.2466V19.2179L13.483 19.1891L13.4515 19.1651C13.4498 19.1574 13.4474 19.1497 13.4443 19.1424C13.4375 19.136 13.4297 19.1307 13.4212 19.1268C13.4187 19.1162 13.4155 19.1058 13.4116 19.0957C13.4116 19.0957 13.3922 19.0957 13.3885 19.0957C13.3849 19.0957 13.3522 19.1232 13.3728 19.134C13.3934 19.1448 13.3922 19.128 13.3922 19.146C13.3946 19.159 13.3946 19.1724 13.3922 19.1855C13.3934 19.1983 13.3934 19.2111 13.3922 19.2238C13.3949 19.237 13.399 19.2498 13.4043 19.2622C13.4043 19.2622 13.397 19.2981 13.397 19.3029V19.3328L13.4091 19.3604V19.4047H13.3776C13.3586 19.4086 13.3403 19.415 13.3231 19.4239V19.4682C13.3328 19.4756 13.3418 19.4841 13.3498 19.4934C13.3543 19.5033 13.3575 19.5138 13.3594 19.5245L13.3691 19.5676C13.3679 19.5744 13.3679 19.5812 13.3691 19.588L13.3934 19.6047C13.3934 19.6047 13.4019 19.6371 13.4019 19.6419C13.4019 19.6467 13.3897 19.6646 13.4019 19.6706L13.4249 19.6874C13.4249 19.6946 13.4164 19.703 13.4116 19.7114C13.4045 19.709 13.3968 19.709 13.3897 19.7114C13.3776 19.7114 13.3776 19.7353 13.3776 19.7353V19.7832C13.3776 19.7832 13.3994 19.8012 13.3982 19.806C13.3962 19.8097 13.3933 19.8127 13.3896 19.8148C13.386 19.8169 13.3818 19.818 13.3776 19.818C13.3667 19.8236 13.3562 19.83 13.3461 19.8371C13.3324 19.8491 13.3198 19.8623 13.3086 19.8767C13.2876 19.8962 13.2649 19.9138 13.2407 19.9294H13.1898L13.168 19.9365L13.1207 19.9162C13.1104 19.9179 13.1002 19.9207 13.0904 19.9246H13.0674L13.0153 19.9318C13.014 19.9417 13.014 19.9518 13.0153 19.9617C13.0156 19.9728 13.0122 19.9838 13.0056 19.9928C12.9971 20.0024 12.985 19.9928 12.985 20.0024C12.985 20.012 12.9947 20.0348 12.985 20.0348C12.9753 20.0348 12.9693 20.0264 12.962 20.0348C12.9547 20.0432 12.9353 20.0348 12.9305 20.0432C12.9256 20.0515 12.8917 20.0611 12.8917 20.0611L12.8735 20.0731C12.8659 20.0812 12.8574 20.0885 12.8481 20.0947C12.8408 20.0947 12.8311 20.1018 12.8311 20.1102C12.8292 20.1233 12.8259 20.1361 12.8214 20.1486L12.7936 20.1857L12.7415 20.2096L12.6869 20.2192V20.2516C12.6869 20.2516 12.6869 20.2791 12.6748 20.2839C12.6627 20.2887 12.6554 20.2983 12.6554 20.3055C12.6579 20.3237 12.6615 20.3417 12.6663 20.3594C12.6663 20.3594 12.693 20.3666 12.6918 20.3714L12.67 20.4073H12.6421L12.59 20.4265L12.5597 20.454L12.5452 20.4732C12.5509 20.491 12.5599 20.5077 12.5718 20.5223C12.573 20.531 12.573 20.5399 12.5718 20.5486C12.5725 20.5533 12.5746 20.5576 12.5778 20.5611C12.5811 20.5645 12.5853 20.5669 12.59 20.5678C12.5997 20.5678 12.6276 20.5606 12.636 20.5678C12.6445 20.575 12.636 20.5738 12.6445 20.5834C12.6473 20.5863 12.6507 20.5887 12.6544 20.5904C12.6582 20.592 12.6622 20.5929 12.6663 20.593V20.6253L12.6469 20.6361L12.5948 20.6624L12.5754 20.6924H12.5427L12.5221 20.7151H12.6118C12.6181 20.7226 12.6238 20.7306 12.6288 20.7391C12.6288 20.7499 12.6603 20.7499 12.6603 20.7499C12.6603 20.7499 12.6821 20.7618 12.6821 20.7678V20.7966L12.739 20.8146L12.7875 20.8253C12.7863 20.8325 12.7863 20.8398 12.7875 20.8469C12.7875 20.8469 12.8226 20.8685 12.8226 20.8768V20.9679V20.9918L12.8469 21.0038H12.8638L12.905 21.0194L12.9293 21.0469L12.9487 21.0972C12.9596 21.1046 12.9697 21.113 12.979 21.1224L13.0008 21.1691C12.9995 21.1831 12.9995 21.1971 13.0008 21.211C13.0008 21.217 13.0286 21.223 13.0286 21.2278V21.2553C13.0496 21.2646 13.071 21.2726 13.0929 21.2793H13.214C13.2409 21.2786 13.2677 21.2754 13.294 21.2697C13.2989 21.2692 13.3038 21.2699 13.3084 21.2715C13.3131 21.2732 13.3172 21.2758 13.3207 21.2793C13.3306 21.2878 13.3416 21.2951 13.3534 21.3009L13.3655 21.332V21.3536L13.3413 21.3691L13.317 21.4015L13.3267 21.4386L13.3582 21.4494C13.3667 21.4506 13.3752 21.4506 13.3837 21.4494C13.3837 21.4494 13.3837 21.429 13.397 21.4206C13.3997 21.4177 13.4031 21.4154 13.4069 21.4142C13.4108 21.4129 13.4149 21.4127 13.4188 21.4135H13.4431L13.4637 21.4242C13.4742 21.4193 13.484 21.4128 13.4927 21.4051L13.5436 21.3871C13.5507 21.3915 13.5585 21.3947 13.5667 21.3967H13.6006L13.6188 21.3871L13.643 21.3739C13.643 21.3739 13.6248 21.3632 13.6272 21.3584C13.6297 21.3536 13.6418 21.326 13.6466 21.326H13.7145L13.7617 21.314L13.8308 21.2649L13.8999 21.2302C13.9123 21.2278 13.925 21.2278 13.9374 21.2302H14.0247C14.0444 21.2278 14.0644 21.2278 14.0841 21.2302L14.1301 21.253L14.1628 21.2817H14.181C14.1982 21.2877 14.2161 21.2913 14.2343 21.2925H14.4294L14.4658 21.3092L14.4985 21.2925L14.5433 21.2781H14.5991C14.612 21.2785 14.6248 21.2813 14.6366 21.2865C14.6521 21.2974 14.6659 21.3103 14.6778 21.3248C14.6778 21.3248 14.6778 21.35 14.6778 21.3572C14.6778 21.3644 14.7117 21.4099 14.7117 21.4099C14.7204 21.4204 14.7297 21.4304 14.7396 21.4398L14.7735 21.4769L14.7602 21.5153C14.7517 21.5237 14.742 21.5308 14.7348 21.5392C14.7275 21.5476 14.7154 21.5632 14.7251 21.5704C14.7348 21.5776 14.7251 21.6327 14.7348 21.6327C14.7445 21.6327 14.7832 21.6626 14.8063 21.6794C14.8063 21.6854 14.7893 21.7165 14.7893 21.7261V21.7477L14.8244 21.8063C14.8342 21.8194 14.8456 21.831 14.8584 21.8411C14.8769 21.8487 14.8959 21.8551 14.9153 21.8602H14.9517C14.9702 21.8703 14.988 21.8815 15.005 21.8938L15.0353 21.9345C15.0529 21.9461 15.0716 21.9561 15.091 21.9645C15.0992 21.9729 15.1065 21.9821 15.1128 21.992C15.1218 22.0067 15.132 22.0207 15.1431 22.0339L15.1843 22.0783C15.1875 22.091 15.192 22.1035 15.1977 22.1154C15.1977 22.1154 15.2461 22.1537 15.2461 22.1621C15.2514 22.1751 15.2579 22.1875 15.2655 22.1992C15.2743 22.2071 15.2836 22.2143 15.2934 22.2208L15.3358 22.2388L15.3782 22.2555C15.3845 22.2633 15.3891 22.2722 15.3915 22.2819C15.3969 22.2969 15.3994 22.3127 15.3988 22.3286V22.3993C15.402 22.416 15.4064 22.4324 15.4121 22.4484C15.4121 22.4568 15.4412 22.4771 15.4412 22.4855C15.4424 22.5015 15.4424 22.5175 15.4412 22.5334C15.4434 22.5506 15.4496 22.567 15.4594 22.5813L15.497 22.5981L15.56 22.6233C15.5778 22.6387 15.5969 22.6527 15.6169 22.6652C15.6242 22.6652 15.6581 22.6652 15.6581 22.6736C15.6581 22.682 15.6799 22.7059 15.692 22.7215C15.7039 22.7336 15.7144 22.7468 15.7236 22.761L15.7514 22.8209L15.7914 22.8556V22.9036L15.7817 22.9251H15.7538L15.6908 22.9155L15.6327 22.8892L15.6036 22.882C15.6036 22.882 15.5915 22.888 15.5915 22.8976C15.5969 22.9074 15.6038 22.9163 15.6121 22.9239C15.6347 22.936 15.6582 22.9464 15.6824 22.9551L15.732 22.979L15.7635 23.0114L15.7854 23.0521C15.7977 23.0581 15.8095 23.0653 15.8205 23.0736C15.8243 23.0839 15.8275 23.0942 15.8302 23.1048L15.8193 23.1228C15.8193 23.1228 15.795 23.1419 15.795 23.1491C15.795 23.1563 15.7781 23.1838 15.7684 23.2006L15.7357 23.2773L15.726 23.3048H15.6799L15.6581 23.342C15.6499 23.3525 15.641 23.3625 15.6315 23.3719V23.4138L15.6605 23.4318L15.6496 23.4522H15.5915L15.56 23.4761L15.5491 23.5312L15.526 23.5648H15.4594L15.4097 23.6103L15.3612 23.627L15.3273 23.6199L15.2655 23.627L15.2049 23.6498L15.1722 23.6833L15.148 23.7169L15.1577 23.7492L15.2013 23.7408L15.2207 23.7133H15.2522C15.2655 23.7093 15.2778 23.7028 15.2885 23.6941L15.32 23.6702H15.3564C15.3701 23.6669 15.3834 23.6624 15.3964 23.657L15.4158 23.6318L15.4424 23.6234L15.4533 23.6426V23.7624L15.377 23.7971L15.3479 23.8163L15.32 23.8331V23.8666L15.3709 23.8882C15.3709 23.8882 15.4037 23.8882 15.4037 23.8977C15.4093 23.9123 15.4162 23.9263 15.4243 23.9397V23.9768L15.4667 23.9876H15.5297L15.5575 24.0008V24.0271H15.5951L15.6193 24.0547L15.5987 24.0654H15.4352L15.3964 24.0894L15.3734 24.1014L15.3394 24.1086L15.297 24.1181L15.2389 24.1517L15.1771 24.172L15.148 24.208L15.1153 24.2571L15.0632 24.202L15.0292 24.1697C15.0353 24.2056 15.0413 24.2415 15.0462 24.2775C15.0532 24.2864 15.0609 24.2948 15.0692 24.3026L15.1552 24.3242L15.1916 24.3122L15.2401 24.3469L15.2716 24.3385L15.3188 24.3517C15.3188 24.3517 15.3188 24.3769 15.3188 24.3817C15.3188 24.3865 15.3685 24.414 15.3685 24.414C15.3886 24.4116 15.409 24.4116 15.4291 24.414L15.5103 24.4428V24.42C15.5103 24.42 15.5454 24.4463 15.5454 24.4535C15.5445 24.4715 15.5487 24.4893 15.5575 24.505C15.5648 24.505 15.6399 24.5649 15.6399 24.5649L15.6751 24.6057V24.6763C15.6701 24.6931 15.6669 24.7104 15.6654 24.7278C15.6691 24.7374 15.6736 24.7466 15.6787 24.7554C15.6859 24.7669 15.6912 24.7794 15.6945 24.7925C15.6969 24.8096 15.6969 24.8269 15.6945 24.844C15.6908 24.8533 15.6908 24.8635 15.6945 24.8728L15.7078 24.8931C15.7208 24.9016 15.7322 24.9121 15.7417 24.9243L15.7635 24.9578L15.7732 24.9842C15.7732 24.9842 15.7732 24.9734 15.7878 25.0153L15.8084 25.0632L15.8605 25.1075C15.8645 25.1237 15.8673 25.1401 15.869 25.1567L15.8787 25.195C15.8916 25.2063 15.903 25.2192 15.9126 25.2333V25.2561L15.978 25.2944L16.0047 25.31C16.0153 25.3185 16.0255 25.3277 16.035 25.3375C16.035 25.3375 16.058 25.3279 16.0628 25.3375C16.0677 25.3471 16.0919 25.3507 16.0919 25.3603C16.096 25.3692 16.1018 25.3774 16.1089 25.3842L16.1343 25.407H16.1513L16.1767 25.4226L16.2034 25.4525C16.2022 25.4653 16.2022 25.4781 16.2034 25.4909C16.2073 25.5051 16.213 25.5188 16.2204 25.5316L16.2046 25.5591C16.2021 25.573 16.2021 25.5872 16.2046 25.6011C16.2046 25.6106 16.2204 25.637 16.2204 25.637L16.201 25.6753C16.207 25.6847 16.2144 25.6931 16.2228 25.7005C16.224 25.7132 16.224 25.7261 16.2228 25.7388C16.2216 25.7503 16.2188 25.7616 16.2143 25.7723C16.2167 25.8002 16.2229 25.8275 16.2325 25.8538V25.8945L16.2507 25.9245L16.2604 25.9939V26.1125L16.2385 26.1736L16.1998 26.2036L16.161 26.2371H16.1295V26.2814L16.1016 26.297C16.0811 26.2946 16.0603 26.2946 16.0398 26.297L16.0144 26.3269L15.9962 26.3521L16.0265 26.3916L16.0398 26.4359L16.058 26.5186V26.5917C16.0556 26.6119 16.0556 26.6324 16.058 26.6527C16.058 26.6599 16.0737 26.703 16.0786 26.7162C16.0834 26.7294 16.1234 26.7294 16.1234 26.7294C16.1335 26.7308 16.1429 26.7355 16.1501 26.7426C16.1586 26.7534 16.2022 26.7629 16.2022 26.7629H16.2385L16.2591 26.7881L16.2192 26.8372L16.247 26.8624C16.247 26.8624 16.2773 26.8719 16.2773 26.8624C16.2834 26.8551 16.2908 26.849 16.2991 26.8444L16.3246 26.8672L16.3585 26.9091C16.3582 26.919 16.3549 26.9287 16.3488 26.9366V26.9893C16.3488 26.9989 16.3355 27.0073 16.3282 27.0169C16.3154 27.0266 16.3016 27.0351 16.287 27.042C16.2858 27.0552 16.2858 27.0684 16.287 27.0816C16.2894 27.097 16.2894 27.1128 16.287 27.1283C16.3087 27.1247 16.3308 27.1247 16.3524 27.1283C16.3686 27.1271 16.3848 27.1271 16.4009 27.1283C16.4155 27.1283 16.4373 27.1594 16.4373 27.1594C16.4272 27.1724 16.4195 27.187 16.4142 27.2025V27.2277L16.4785 27.2612H16.5039L16.5269 27.296C16.5269 27.296 16.5475 27.3032 16.5572 27.296C16.5669 27.2888 16.5839 27.26 16.5936 27.26L16.6348 27.2265C16.6348 27.2265 16.6348 27.1858 16.6505 27.1858C16.6641 27.1762 16.6763 27.1649 16.6869 27.1522C16.6922 27.1415 16.6962 27.1303 16.699 27.1187C16.699 27.1115 16.7123 27.0708 16.7123 27.0708L16.7463 27.0121L16.7681 26.9558H16.8117L16.8214 26.9941L16.8577 27.0193V27.0672H16.9026C16.9026 27.0672 16.9244 27.0828 16.9183 27.0959H16.9195ZM16.0229 27.7595C16.0294 27.7707 16.0371 27.7811 16.0459 27.7907H16.0701C16.0553 27.7744 16.0427 27.7563 16.0325 27.7368L16.0229 27.7595Z" fill="#0A1C33"/>
    <path d="M93.0811 43.3959L94.6285 43.8499C94.4465 44.4691 94.0632 45.0117 93.5379 45.3939C92.9918 45.7956 92.3144 45.9964 91.5058 45.9964C91.0423 46.006 90.5816 45.9237 90.1508 45.7544C89.72 45.5851 89.3278 45.3322 88.9975 45.0106C88.3092 44.3542 87.9655 43.4758 87.9663 42.3754C87.9663 41.3277 88.3007 40.4709 88.9696 39.8049C89.2744 39.4874 89.642 39.2352 90.0495 39.064C90.457 38.8927 90.8958 38.8061 91.3386 38.8095C92.3976 38.8095 93.2269 39.1217 93.8263 39.7462C94.4257 40.3706 94.7254 41.2295 94.7254 42.3227C94.7254 42.3958 94.7254 42.4784 94.7193 42.5706C94.7133 42.6629 94.7121 42.7359 94.7121 42.791L94.6975 42.8869H89.7912C89.7968 43.0972 89.8469 43.3041 89.9383 43.4941C90.0297 43.6841 90.1604 43.853 90.3219 43.9901C90.6505 44.2817 91.0788 44.4392 91.5203 44.4309C92.3104 44.4301 92.8306 44.0851 93.0811 43.3959ZM89.8336 41.6328H92.8993C92.8897 41.2756 92.7428 40.9356 92.4885 40.6817C92.2333 40.4245 91.8592 40.296 91.3665 40.296C91.1658 40.2875 90.9654 40.3199 90.7779 40.3909C90.5903 40.462 90.4195 40.5703 90.2759 40.7092C90.015 40.9503 89.8569 41.2805 89.8336 41.6328Z" fill="#0A1C33"/>
    <path d="M95.627 43.947C95.627 43.368 95.8176 42.9041 96.1989 42.5551C96.612 42.1917 97.1272 41.9611 97.676 41.8939L99.364 41.6459C99.7081 41.6004 99.8802 41.4407 99.8802 41.1668C99.8826 41.0455 99.8568 40.9252 99.8047 40.8153C99.7526 40.7054 99.6756 40.6089 99.5797 40.5332C99.3801 40.3679 99.0946 40.2852 98.723 40.2852C98.3839 40.2676 98.0513 40.3815 97.796 40.6026C97.5717 40.8067 97.4347 41.0878 97.4131 41.3884L95.7675 41.0434C95.833 40.4549 96.1258 39.9358 96.646 39.4863C97.1663 39.0367 97.8529 38.8119 98.706 38.8119C99.7287 38.8119 100.482 39.0515 100.965 39.5306C101.448 40.0097 101.69 40.6274 101.692 41.3836V44.7172C101.688 45.0782 101.716 45.4389 101.775 45.7952H100.079C100.026 45.5278 100.002 45.2555 100.009 44.9831C99.5724 45.6539 98.8987 45.9888 97.9874 45.988C97.2806 45.988 96.7115 45.786 96.2801 45.3819C96.0747 45.2021 95.9103 44.9811 95.7977 44.7338C95.6851 44.4864 95.6269 44.2182 95.627 43.947ZM98.3728 44.6225C98.7656 44.639 99.1507 44.511 99.4536 44.2632C99.7372 44.0236 99.879 43.6215 99.879 43.057V42.7539L98.3316 42.9935C97.7661 43.0733 97.4833 43.358 97.4833 43.8475C97.4819 43.9522 97.5027 44.0559 97.5445 44.1521C97.5862 44.2483 97.648 44.3347 97.7257 44.4057C97.9042 44.5591 98.1367 44.637 98.3728 44.6225Z" fill="#0A1C33"/>
    <path d="M107.273 38.9867V40.8326C107.09 40.7964 106.903 40.7779 106.716 40.7775C106.187 40.7775 105.759 40.9268 105.434 41.2255C105.108 41.5241 104.947 42.0132 104.949 42.6928V45.7927H103.095V39.0143H104.893V40.0204C105.228 39.3121 105.878 38.9584 106.844 38.9592C106.944 38.9592 107.088 38.9688 107.273 38.9867Z" fill="#0A1C33"/>
    <path d="M111.534 36.9888V39.0143H112.914V40.6397H111.534V43.481C111.534 43.7661 111.599 43.9681 111.729 44.0871C111.86 44.2069 112.063 44.2667 112.342 44.2667C112.534 44.2728 112.726 44.2539 112.914 44.2104V45.7269C112.579 45.848 112.224 45.9041 111.868 45.8922C111.199 45.8922 110.67 45.7061 110.279 45.334C109.889 44.9619 109.694 44.4496 109.694 43.7972V40.6397H108.452V39.0143H108.801C108.946 39.0239 109.092 39.0024 109.228 38.9514C109.364 38.9003 109.487 38.8209 109.589 38.7184C109.776 38.5025 109.873 38.224 109.86 37.9398V36.9888H111.534Z" fill="#0A1C33"/>
    <path d="M116.218 41.8112V45.7928H114.364V35.8149H116.218V39.5761C116.636 39.0802 117.253 38.8323 118.071 38.8323C118.908 38.8323 119.542 39.0826 119.973 39.5833C120.405 40.084 120.621 40.7292 120.622 41.519V45.7928H118.769V41.84C118.786 41.4872 118.674 41.1402 118.455 40.8614C118.249 40.6114 117.931 40.4865 117.5 40.4865C117.33 40.4789 117.16 40.5083 117.002 40.5724C116.844 40.6365 116.702 40.7339 116.587 40.8578C116.352 41.1218 116.222 41.4601 116.218 41.8112Z" fill="#0A1C33"/>
<div xmlns="" id="divScriptsUsed" style="display: none"/><script xmlns="" id="globalVarsDetection" src="chrome-extension://cmkdbmfndkfgebldhnkbfhlneefdaaip/js/wrs_env.js"/></svg>
