<!-- https://www.sunnova.com/ -->
<svg width="95" height="21" fill="none" xmlns="http://www.w3.org/2000/svg" title="Sunnova Home">
    <path
        d="M.423 10.661l2.16-.346c.121.883.459 1.56 1.013 2.03.554.47 1.329.706 2.324.705 1.003 0 1.748-.208 2.233-.625.486-.416.729-.905.727-1.467 0-.503-.214-.899-.642-1.188-.3-.199-1.044-.451-2.233-.757-1.602-.412-2.713-.768-3.331-1.07-.619-.3-1.088-.716-1.408-1.246a3.353 3.353 0 01-.479-1.763 3.428 3.428 0 01.395-1.626c.257-.494.625-.92 1.073-1.244.34-.257.804-.473 1.39-.648a6.51 6.51 0 011.887-.266c1.012 0 1.9.148 2.665.445.764.297 1.328.699 1.692 1.206.364.507.615 1.186.752 2.035l-2.135.296c-.098-.676-.38-1.203-.844-1.583-.464-.38-1.122-.569-1.972-.569-1.003 0-1.72.17-2.149.508-.429.338-.643.734-.642 1.187-.002.283.092.558.266.779.179.239.457.436.836.593.218.084.86.273 1.928.57 1.545.42 2.624.764 3.234 1.032.58.24 1.08.646 1.442 1.168.35.512.524 1.148.524 1.906a3.788 3.788 0 01-.637 2.095c-.424.655-1.037 1.162-1.839 1.521-.801.36-1.707.539-2.718.539-1.675 0-2.95-.355-3.829-1.064-.877-.71-1.439-1.76-1.683-3.153zM22.26 1.447v7.038c0 1.122-.12 1.977-.358 2.567a2.844 2.844 0 01-1.221 1.397 3.547 3.547 0 01-1.846.512c-.654 0-1.204-.167-1.649-.5-.445-.334-.736-.792-.874-1.376-.09-.404-.134-1.188-.133-2.35V1.447h-2.185v8.138c0 .95.045 1.641.135 2.079.129.652.353 1.202.674 1.651a3.2 3.2 0 001.018.891c1.85-.458 3.827-.912 5.912-1.313.227-.046 2.05-.4 2.71-.519V1.447H22.26zM37.9 4.34a4.375 4.375 0 00-.68-1.644c-.324-.46-.81-.833-1.461-1.12a5.31 5.31 0 00-2.143-.426c-1.789 0-3.156.722-4.101 2.166V1.447h-1.967V11.86c.72-.112 1.448-.221 2.185-.327V7.408c0-1.682.338-2.824 1.013-3.427.676-.603 1.48-.903 2.41-.901.583 0 1.09.133 1.522.4.412.246.731.626.905 1.08.171.45.257 1.13.257 2.035v4.215c.723-.07 1.451-.132 2.185-.185V6.506c0-1.03-.04-1.753-.122-2.166m13.5 0a4.341 4.341 0 00-.679-1.644c-.324-.46-.812-.833-1.462-1.12a5.3 5.3 0 00-2.146-.426c-1.787 0-3.154.721-4.1 2.164V1.447H41.05v8.973a98.034 98.034 0 012.185-.106V7.408c0-1.682.337-2.824 1.013-3.427.676-.603 1.479-.903 2.41-.901.582 0 1.09.133 1.523.4.412.246.73.626.903 1.08.172.45.258 1.13.258 2.036v3.602c.73.006 1.458.017 2.184.024V6.506c0-1.03-.04-1.753-.121-2.166m27.626-2.893l-2.864 8.014c-.349.974-.62 1.807-.813 2.5-.251-.918-.527-1.8-.826-2.648l-2.763-7.866h-2.307l4.198 11.245 3.135.692c.016.005.034.008.05.012l4.435-11.949h-2.245zM91.434 7.99c-.793.33-1.983.61-3.568.84-.9.132-1.535.28-1.905.446a1.905 1.905 0 00-.862.72 1.996 1.996 0 00.358 2.543c.441.396 1.087.594 1.935.594.842 0 1.59-.188 2.246-.563a3.443 3.443 0 001.444-1.54c.234-.503.351-1.245.352-2.227V7.99zm.182 4.972c-.81.701-1.588 1.196-2.336 1.484-.77.293-1.587.44-2.41.433-1.416 0-2.504-.352-3.264-1.057-.76-.706-1.14-1.607-1.14-2.703a3.646 3.646 0 01.43-1.762c.27-.513.657-.952 1.128-1.28a5.261 5.261 0 011.572-.73c.429-.116 1.076-.227 1.942-.334 1.764-.214 3.062-.47 3.896-.767.008-.305.012-.5.012-.582 0-.907-.206-1.546-.62-1.917-.556-.502-1.386-.754-2.487-.754-1.028 0-1.787.183-2.275.55-.488.367-.85 1.016-1.087 1.948l-2.136-.296c.194-.932.514-1.685.96-2.258.444-.574 1.087-1.015 1.927-1.323.841-.31 1.816-.464 2.925-.464 1.1 0 1.994.13 2.682.393.688.262 1.194.594 1.517.996.323.4.55.905.68 1.515.073.381.11 1.066.11 2.056v2.97c0 2.069.047 3.379.14 3.929a5.04 5.04 0 00.551 1.577h-2.281a4.773 4.773 0 01-.436-1.62"
        fill="#3F3F42"></path>
    <path
        d="M90.51 19.108c-1.221-.491-2.73-1.007-4.451-1.643-.193-.065-.396-.13-.593-.196-.696-.233-1.42-.458-2.185-.707-.98-.31-2.013-.637-3.107-.913-1.093-.287-2.227-.603-3.41-.898l-3.683-.812c-1.269-.258-2.581-.478-3.92-.729-1.339-.25-2.72-.4-4.118-.609-2.804-.357-5.712-.66-8.675-.826-1.482-.085-2.978-.123-4.477-.187-1.502-.01-3.011-.048-4.518-.033-3.015.061-6.029.17-8.985.408-2.96.196-5.857.573-8.656.931-2.795.4-5.488.851-8.022 1.367-2.54.489-4.92 1.057-7.106 1.609-1.274.323-2.47.655-3.599.982a131.657 131.657 0 00-6.824 2.184c-1.241.428-2.197.822-2.852 1.08l-.996.412 1.029-.315c.672-.2 1.67-.467 2.93-.814 1.26-.346 2.806-.731 4.58-1.144 1.773-.414 3.786-.832 5.98-1.277 2.198-.429 4.583-.861 7.115-1.262 2.529-.415 5.214-.743 7.984-1.09 2.776-.302 5.65-.565 8.574-.749 2.92-.213 5.896-.297 8.868-.333 1.487-.022 2.975 0 4.456 0 1.478.051 2.956.078 4.418.15l2.185.13c.724.04 1.446.066 2.16.136 1.427.13 2.845.211 4.23.38 1.383.169 2.75.303 4.079.491 1.33.188 2.634.362 3.895.569l3.671.655c1.183.226 2.32.478 3.416.704 1.099.21 2.133.492 3.125.728s1.94.447 2.817.688c1.75.502 3.29.902 4.537 1.3 1.242.412 2.23.706 2.9.917l1.028.321-.989-.42c-.648-.273-1.593-.691-2.811-1.185z"
        fill="url(#sunnova-logo_svg__a)"></path>
    <path
        d="M68.716 8.572a7.633 7.633 0 01-.65 3.083c-.514-.08-1.04-.15-1.564-.222a6.088 6.088 0 00.707-2.86c0-.8-.154-1.591-.454-2.33a6.101 6.101 0 00-1.294-1.974 5.964 5.964 0 00-1.937-1.319 5.873 5.873 0 00-4.57 0 5.964 5.964 0 00-1.937 1.32 6.095 6.095 0 00-1.294 1.973c-.3.739-.455 1.53-.455 2.33a6.1 6.1 0 00.27 1.792 94.044 94.044 0 00-1.572-.066 7.69 7.69 0 011.99-7.112 7.402 7.402 0 015.283-2.23c1.982 0 3.883.802 5.284 2.23a7.69 7.69 0 012.189 5.385"
        fill="url(#sunnova-logo_svg__b)"></path>
    <defs>
        <linearGradient id="sunnova-logo_svg__a" x1="22.315" y1="39.831" x2="85.105" y2="-6.606"
            gradientUnits="userSpaceOnUse">
            <stop stop-color="#F63"></stop>
            <stop offset="0.15" stop-color="#FF702E"></stop>
            <stop offset="0.42" stop-color="#FF8C20"></stop>
            <stop offset="0.76" stop-color="#FFB80A"></stop>
            <stop offset="0.9" stop-color="#FC0"></stop>
        </linearGradient>
        <linearGradient id="sunnova-logo_svg__b" x1="66.01" y1="1.906" x2="53.592" y2="11.426"
            gradientUnits="userSpaceOnUse">
            <stop stop-color="#FC0"></stop>
            <stop offset="1" stop-color="#F63"></stop>
        </linearGradient>
    </defs>
</svg>