<?xml version="1.0" encoding="UTF-8"?><svg id="Full_Color_RGB" xmlns="http://www.w3.org/2000/svg" viewBox="0 0 1366 768"><defs><style>.cls-1{fill:#3cbfef;}.cls-2{fill:#fee003;}.cls-3{fill:#010101;font-family:Montserrat-Light, Montserrat;font-size:95.83px;letter-spacing:.98em;}</style></defs><g><polygon class="cls-1" points="462.6 445.62 437.27 479 297.66 479 297.66 445.62 462.6 445.62"/><polygon class="cls-1" points="458.79 288.76 433.47 322.13 297.66 322.13 297.66 288.76 458.79 288.76"/><polygon class="cls-1" points="462.6 161 437.27 194.38 297.66 194.38 297.66 161 462.6 161"/><path class="cls-1" d="M1329.5,161.03l-25.94,33.35h-108.52c-17.02,7.64-27.54,23.33-27.54,43.83,0,12.4,3.34,19.53,11.94,27.63,9.52,9.56,21.5,14.78,33.4,20.04l14.73,6.45-21.69,27.91-9.24-4.3c-12.44-5.72-28.18-12.4-42.46-26.26-13.82-13.36-21.91-28.09-21.91-51.93,0-29.87,13.91-53.76,36.42-67.8,5.77-3.66,12.08-6.63,18.94-8.92h141.87Z"/><polygon class="cls-1" points="636.54 479 492 479 492 164.24 527.23 209.62 527.23 445.65 610.64 445.65 636.54 479"/><polygon class="cls-1" points="697.97 160.99 697.97 479 662.65 479 662.65 425.2 663.34 425.88 662.65 424.65 662.65 160.99 697.97 160.99"/><path class="cls-1" d="M1315.32,386.99c0,32.71-13.5,59.34-35.46,76.49-8.51,6.68-18.26,11.99-29.05,15.51h-142.56l25.94-33.35h110.17c23.47-10.39,34.72-33.58,34.72-57.23,0-14.36-4.25-26.72-15.74-37.24-9.06-8.56-21.46-14.27-38.11-21.91l-.5-.27,21.91-28.23c17.34,7.64,33.22,15.97,45.8,28.5,16.19,16.24,22.87,34.82,22.87,57.74Z"/><g><path class="cls-2" d="M1007.16,446.49l-14.65-36.88,14.61,36.88,3.49,8.83-3.46-8.83Zm55.44-46.65l3.76,9.77h.04l-3.79-9.77Z"/><path class="cls-2" d="M1062.6,399.84l3.76,9.77h.04l-3.79-9.77Z"/><path class="cls-1" d="M1069.17,422.22c-6.35,7.44-13.41,14.31-21.07,20.58-7.17,5.86-14.72,11.04-22.69,15.59l-3.57-8.94-3.49-8.9c6.16-3.61,12.09-7.74,17.77-12.36,2.37-1.95,4.66-3.91,6.87-5.97h26.18Z"/><path class="cls-1" d="M962.83,478.23c-5.45,.64-10.89,.9-16.41,.9s-11.04-.26-16.68-.83c-88.53-9.09-153.25-88.49-144.16-177.02,3.64-35.68,18.67-67.5,41.17-92.14l5.93,7.47,6.09,7.55c-18.78,21.41-31.29,48.64-34.44,78.99-7.92,78.2,49.17,148.29,127.29,156.29,4.17,.45,8.3,.71,12.43,.71l9.65,9.32,9.13,8.75Z"/><path class="cls-1" d="M1106.77,334.11c-2.78,27.19-12.24,52.7-27.23,74.63l-4.21-10.89-4.43-11.23c9.28-16.56,15.06-35.04,17.01-54.46,3.91-37.86-7.21-75.01-31.25-104.49-17.28-21.15-39.7-36.58-64.94-45.04l-4.39-11.23-4.21-10.82c77.75,18.22,131.95,92.02,123.65,173.53Z"/></g><g><path class="cls-2" d="M777.01,313.19c-.08,5.92,.16,11.78,.69,17.58l-11.57-2.83-23.99-5.9,23.84-6.05,11.03-2.8Z"/><path class="cls-2" d="M794.39,239.59l-6.49-6.24-17.89-17.14,23.85,6.72,8.37,2.36c-2.82,4.62-5.43,9.4-7.85,14.29Z"/><path class="cls-2" d="M799.2,399.82c3.2,5.66,6.71,11.14,10.52,16.38l-15.28,4.44-23.61,6.84,17.67-17.23,10.71-10.43Z"/><path class="cls-2" d="M860.23,462.82c6.04,3.66,12.32,6.98,18.84,9.87l-13.49,14.07-17.16,17.88,6.72-23.85,5.09-17.97Z"/><path class="cls-2" d="M965.45,487l-5.29,21.54-5.92,23.96-6.09-23.97-5.32-20.95c7.65,.3,15.18,.09,22.62-.58Z"/><path class="cls-2" d="M769.23,286.08l-47.43-26.21,54.22,.71,9.79,.14c-3.27,9.78-5.68,20.01-7.14,30.58l-9.44-5.22Z"/><path class="cls-2" d="M780.76,351.12c2.31,10.86,5.66,21.39,9.94,31.44l-14.22,.32-54.28,1.03,47.35-26.52,11.21-6.27Z"/><path class="cls-2" d="M820.86,430.07c7.75,8.69,16.36,16.6,25.77,23.59l-15.7,9.47-46.4,28.07,27.71-46.66,8.63-14.47Z"/><path class="cls-2" d="M893.05,478.23c11.35,3.91,23.28,6.71,35.69,8.22l-10.47,18.88-26.17,47.53,.67-54.32,.28-20.3Z"/></g><polygon class="cls-2" points="992.51 409.6 1007.12 446.49 1010.61 455.32 1014.14 464.14 1043.67 538.74 978.46 475.86 970.08 467.79 965.8 463.65 961.37 459.37 862.21 363.74 966.55 363.74 847.52 214.97 847.52 214.93 841.51 207.53 835.73 200.21 803.73 160.2 969.48 160.2 971.4 165.09 972.52 168.05 972.52 168.09 972.56 168.09 976.62 178.46 1062.6 399.84 1066.35 409.6 992.51 409.6"/><polygon class="cls-1" points="275.88 160.99 275.88 479 240.61 446.97 240.61 323.54 185.66 323.54 159.72 290.14 240.61 290.14 240.61 160.99 275.88 160.99"/><polygon class="cls-1" points="159.99 323.54 77.6 323.54 77.6 479 42.28 479 42.28 160.99 77.6 193.01 77.6 290.14 134.1 290.14 159.99 323.54"/></g><text class="cls-3" transform="translate(213.32 648.69)"><tspan x="0" y="0">ENERGY</tspan></text></svg>